<svg width="24" height="25" viewBox="0 0 24 25" fill="none" xmlns="http://www.w3.org/2000/svg">
<path d="M7.24 2.875H5.34C3.15 2.875 2 4.02346 2 6.20055V8.09801C2 10.2751 3.15 11.4236 5.33 11.4236H7.23C9.41 11.4236 10.56 10.2751 10.56 8.09801V6.20055C10.57 4.02346 9.42 2.875 7.24 2.875Z" fill="#00AF41"/>
<path opacity="0.4" d="M18.6704 2.875H16.7704C14.5904 2.875 13.4404 4.02346 13.4404 6.20055V8.09801C13.4404 10.2751 14.5904 11.4236 16.7704 11.4236H18.6704C20.8504 11.4236 22.0004 10.2751 22.0004 8.09801V6.20055C22.0004 4.02346 20.8504 2.875 18.6704 2.875Z" fill="#00AF41"/>
<path d="M18.6704 14.2891H16.7704C14.5904 14.2891 13.4404 15.4375 13.4404 17.6146V19.5121C13.4404 21.6892 14.5904 22.8376 16.7704 22.8376H18.6704C20.8504 22.8376 22.0004 21.6892 22.0004 19.5121V17.6146C22.0004 15.4375 20.8504 14.2891 18.6704 14.2891Z" fill="#00AF41"/>
<path opacity="0.4" d="M7.24 14.2891H5.34C3.15 14.2891 2 15.4375 2 17.6146V19.5121C2 21.6991 3.15 22.8476 5.33 22.8476H7.23C9.41 22.8476 10.56 21.6991 10.56 19.5221V17.6246C10.57 15.4375 9.42 14.2891 7.24 14.2891Z" fill="#00AF41"/>
</svg>
