<?xml version="1.0" encoding="UTF-8"?>
<svg id="Calque_2" data-name="Calque 2" xmlns="http://www.w3.org/2000/svg" viewBox="0 0 751.85 289.18">
  <defs>
    <style>
      .cls-1 {
        fill: #fdef42;
      }

      .cls-2 {
        fill: #e90f0f;
      }

      .cls-3 {
        fill: #00af41;
      }
    </style>
  </defs>
  <g id="Calque_1-2" data-name="Calque 1">
    <g>
      <g>
        <path class="cls-3" d="m16.18,168.72c11.22-9.9,22-19.35,32.72-28.86,12.82-11.38,25.6-22.82,38.39-34.23,11.87-10.58,23.62-21.3,35.67-31.66,5.31-4.57,10.69-9.16,17.12-12.27,7.78-3.76,25.41-1.33,31.43,4.39,2.13,2.02,2.85,3.77.12,5.87-1.64,1.26-3.05,2.8-4.62,4.16-2.03,1.77-3.79,2.58-6.9,1.24-8.44-3.65-15.65-1.15-22.42,5.01-17.36,15.81-35.06,31.24-52.65,46.79-14.2,12.55-28.46,25.04-42.67,37.58-7.43,6.55-14.72,13.26-22.26,19.68-3.37,2.88-4.93,5.94-4.88,10.6.25,23.99.08,47.99.1,71.99,0,1.82-.66,4.27,1.3,5.15,1.9.85,3.36-1.09,4.77-2.34,16-14.11,32.08-28.13,47.99-42.34,10.97-9.8,21.85-19.73,32.47-29.91,3.74-3.59,8.05-3.22,11.2-1.24,3.17,1.99,4.75,6.29,2.55,10.5-.69,1.32-1.54,2.68-2.63,3.65-7.98,7.05-16.14,13.9-24.06,21.02-11.62,10.45-23.83,20.24-34.9,31.32-1.57,1.57-3.38,2.89-5.08,4.31-1.11.93-3.2,1.58-2.59,3.24.72,1.96,2.96,1.02,4.5,1.03,14.36.08,28.72.05,43.08.05,1.07,0,2.13,0,3.68,0-2.82,4.41-5.19,8.37-7.82,12.15-1.66,2.39-3.9,3.58-7.16,3.56-25.89-.15-51.77-.17-77.66.02-4.19.03-4.91-1.49-4.91-5.22.04-62.92-.1-125.84-.05-188.77,0-9.39.16-18.88,6.09-27.06,4.46-6.16,10.6-10.56,16.15-15.54,14.25-12.81,29.02-25.05,43.19-37.95C76.05,4.97,87.94-.09,102.49.01,142.35.31,182.23.19,222.1,0c4.62-.02,6.31,1.04,6.05,5.88-.41,7.54.18,10.34-.16,22.67-.15,5.47-7.16,12.14-12.6,12.3-2.84.08-4.15-.73-4.07-3.79.15-5.29-.24-10.59.05-15.87.24-4.18-1.09-5.42-5.39-5.39-30.42.25-60.84.21-91.27.26-3.21,0-6.47.38-9.63-.02-13.72-1.78-23.82,4.66-33.23,13.61-9.69,9.21-19.85,17.93-29.88,26.78-7.38,6.51-14.89,12.88-21.69,20.01-2.78,2.91-4.55,6.5-4.72,10.43-.33,7.73-.21,15.48-.21,23.22,0,1.08-.19,2.52,1.05,3.02,1.36.54,1.79-.96,2.59-1.68,17.54-15.61,35.11-31.19,52.69-46.77,5.09-4.51,10.08-9.14,15.33-13.46,4.24-3.48,8.52-3.18,11.5.29,3.09,3.59,3,8.89-.75,12.18-12.61,11.08-25.48,21.88-38.07,32.98-11.36,10.01-21.68,21.45-33.98,30.1-10.8,7.59-11.28,17.01-10.48,27.91.32,4.41-.58,8.92.94,14.07Z"/>
        <path class="cls-2" d="m209.8,75.56c-19.52,17.13-39.03,34.26-58.55,51.38.1.44.2.88.31,1.32,2.16,0,4.32,0,6.48,0,8.5,0,17.01-.13,25.51.03,3.38.06,7.19.47,8.09,4.6.78,3.61.74,6.82-2.91,9.98-15.74,13.64-30.93,27.9-46.55,41.67-2.6,2.29-5.17,5.03-9.6,5.02-3.81,0-5.52-1.98-7.01-4.51-1.4-2.37-1.16-4.74.61-7.3,3.82-5.54,9.42-9.04,14.28-13.39,7.59-6.79,15.18-13.57,23.18-20.71-2.39-2.01-4.99-1.81-7.48-1.82-8.69-.02-17.38-.05-26.07.06-3.45.04-6.11-1.26-6.99-4.51-.79-2.87-.71-5.71,2.13-8.17,10.7-9.29,21.17-18.85,31.75-28.28,13.03-11.62,25.98-23.34,39.16-34.78,6.9-5.99,28.67-19.04,31.14-17.03,2.1,1.7.7,5.69.71,8.66.06,44.6-.53,89.21.34,133.79.38,19.25-5.1,34.09-20.54,46.07-15.15,11.74-29.41,24.67-43.61,37.56-8.17,7.42-17.04,12.34-28.14,13.34-11.08,1-22.11.44-34.15.48,3.28-4.95,5.99-9.1,8.76-13.2,1.33-1.96,3.45-2.12,5.56-2.13,4.54-.03,9.09-.27,13.6.03,8.02.54,14.75-2.29,20.61-7.42,18.83-16.47,37.62-32.98,56.33-49.58,2.98-2.65,4.8-5.96,4.64-10.39-.3-8.77-.09-17.56-.09-27.78-8.55,7.55-16.09,14.14-23.55,20.81-12.74,11.4-25.45,22.83-38.14,34.28-8.02,7.23-16.01,14.51-23.97,21.8-1.82,1.67-3.71,3.13-6.14,3.82-3.62,1.03-7.09.24-8.91-2.76-2.13-3.5-2.09-7.45,1.47-10.64,11.92-10.69,23.81-21.41,35.68-32.15,16.05-14.52,31.88-29.28,48.25-43.42,3.7-3.2,6.9-7.03,11.22-9.65,2.81-1.7,4.24-4.51,4.19-8.48-.28-24-.13-48-.13-72,0-1.27,0-2.54,0-3.8-.48-.27-.96-.54-1.44-.82Z"/>
        <path class="cls-1" d="m102.62,163.8c.9,3.78-2.33,6.02-4.61,8.08-12.48,11.26-25.26,22.17-37.92,33.23-4.09,3.57-8,7.34-12.18,10.79-4.48,3.7-9.96,3.73-12.71.38-2.61-3.18-1.78-8.81,2.24-12.38,14.53-12.91,29.2-25.65,43.73-38.56,3.15-2.8,5.7-6.18,9.45-8.45,2.97-1.8,5.34-1.8,8.34-.3,3.06,1.53,3.7,3.93,3.67,7.21Z"/>
      </g>
      <g>
        <path d="m335.02,32.37c4.33,1.68,8.39,4.25,12.16,7.71l-7.83,9.03c-2.97-2.49-5.96-4.29-8.97-5.42s-6.24-1.69-9.69-1.69c-3.85,0-6.96.86-9.33,2.59-2.37,1.73-3.55,4.15-3.55,7.28,0,2.09.46,3.81,1.39,5.18.92,1.37,2.59,2.65,5,3.85,2.41,1.2,5.98,2.53,10.72,3.97,8.19,2.57,14.35,5.76,18.48,9.57,4.13,3.82,6.2,9.37,6.2,16.68,0,4.98-1.26,9.39-3.79,13.24-2.53,3.85-6.16,6.86-10.9,9.03-4.74,2.17-10.35,3.25-16.86,3.25s-12.02-1.03-17.04-3.07c-5.02-2.05-9.33-4.84-12.94-8.37l8.19-9.15c3.21,2.73,6.54,4.8,9.99,6.2,3.45,1.41,7.26,2.11,11.44,2.11,4.57,0,8.27-1.08,11.08-3.25,2.81-2.17,4.21-5.22,4.21-9.15,0-2.41-.48-4.4-1.45-5.96-.96-1.57-2.61-2.97-4.94-4.22-2.33-1.24-5.7-2.55-10.11-3.91-8.83-2.73-15.21-6.02-19.15-9.87-3.93-3.85-5.9-8.91-5.9-15.17,0-4.57,1.2-8.59,3.61-12.04,2.41-3.45,5.76-6.14,10.05-8.07,4.29-1.93,9.17-2.89,14.63-2.89,5.86,0,10.96.84,15.29,2.53Z"/>
        <path d="m424.72,114.85l-5.18-19.26h-27.57l-5.18,19.26h-16.5l25.89-83.2h19.63l25.77,83.2h-16.86Zm-29.62-31.3h21.19l-10.59-39.74-10.6,39.74Z"/>
        <path d="m547.77,114.85h-15.53l-2.17-34.8c-.72-12.44-1.08-22.31-1.08-29.62v-4.33l-15.17,59.72h-15.05l-16.14-59.84c.16,5.3.24,9.31.24,12.04,0,7.3-.24,14.81-.72,22.51l-2.05,34.32h-15.41l6.62-83.2h20.47l14.81,58.28,13.97-58.28h20.71l6.5,83.2Z"/>
        <path d="m625.19,114.85l-5.18-19.26h-27.57l-5.18,19.26h-16.5l25.89-83.2h19.63l25.77,83.2h-16.86Zm-29.62-31.3h21.19l-10.59-39.74-10.6,39.74Z"/>
        <path d="m311.66,176.14v83.2h-15.89v-83.2h15.89Zm46.72,0l-28.78,37.69,31.06,45.51h-18.9l-29.38-44.43,28.78-38.77h17.22Z"/>
        <path d="m431.7,259.34l-5.18-19.26h-27.57l-5.18,19.26h-16.5l25.89-83.2h19.63l25.77,83.2h-16.86Zm-29.62-31.3h21.19l-10.59-39.74-10.6,39.74Z"/>
        <path d="m519.96,259.34l-5.18-19.26h-27.57l-5.18,19.26h-16.5l25.89-83.2h19.63l25.77,83.2h-16.86Zm-29.62-31.3h21.19l-10.59-39.74-10.6,39.74Z"/>
        <path d="m617.36,176.14l-26.73,51.66v31.55h-16.14v-31.43l-26.73-51.78h17.58l17.58,38.65,17.58-38.65h16.86Z"/>
        <path d="m660.83,176.14v83.2h-15.89v-83.2h15.89Z"/>
        <path d="m751.85,176.14l-1.69,12.64h-21.67v70.56h-16.01v-70.56h-22.4v-12.64h61.77Z"/>
      </g>
    </g>
  </g>
</svg>