<svg width="24" height="24" viewBox="0 0 24 24" fill="none" xmlns="http://www.w3.org/2000/svg">
<path opacity="0.4" d="M9 7.19109V16.7683C9 19.974 11 21.9713 14.2 21.9713H16.79C19.99 21.9713 21.99 19.974 21.99 16.7783V7.19109C22 3.99537 20 1.99805 16.8 1.99805H14.2C11 1.99805 9 3.99537 9 7.19109Z" fill="white"/>
<path d="M5.57043 8.10946L2.22043 11.455C1.93043 11.7446 1.93043 12.224 2.22043 12.5136L5.57043 15.8591C5.86043 16.1487 6.34043 16.1487 6.63043 15.8591C6.92043 15.5695 6.92043 15.0901 6.63043 14.8005L4.56043 12.7333H15.2504C15.6604 12.7333 16.0004 12.3937 16.0004 11.9843C16.0004 11.5748 15.6604 11.2353 15.2504 11.2353H4.56043L6.63043 9.16805C6.78043 9.01825 6.85043 8.8285 6.85043 8.63876C6.85043 8.44901 6.78043 8.24928 6.63043 8.10946C6.34043 7.80987 5.87043 7.80987 5.57043 8.10946Z" fill="white"/>
</svg>
